<?xml version="1.0" encoding="utf-8"?>
<!-- Generator: Adobe Illustrator 24.0.1, SVG Export Plug-In . SVG Version: 6.00 Build 0)  -->
<svg version="1.1" id="图层_1" xmlns="http://www.w3.org/2000/svg" xmlns:xlink="http://www.w3.org/1999/xlink" x="0px" y="0px"
	 viewBox="0 0 171.36 180.6" style="enable-background:new 0 0 171.36 180.6;" xml:space="preserve">
<style type="text/css">
	.st0{opacity:0.3;fill:#D44B33;}
	.st1{fill:#5FC1C7;}
	.st2{fill:#076BAF;}
	.st3{fill:#F1AB3E;}
</style>
<g>
	<path id="_x31__3_" class="st0" d="M62.53,95.7L13.4,46.59l9.66-9.66l82.22,5.75l18.7-18.7l5.76,5.76
		C129.74,29.74,90.89,64.47,62.53,95.7z M19.88,58.61l-6.27-6.27c0,0-7,7.39-7.71,10.58l-2.98-0.31l-1.85,1.85l2.78,2.77
		c0,0-0.93,1.13-0.62,1.86c0.72,0.29,1.85-0.63,1.85-0.63l2.77,2.77l1.85-1.85L9.4,66.43C12.58,65.7,19.88,58.61,19.88,58.61z
		 M25.53,106.6l-9.04,9.05l20.35,11.31c3.91-7.2,13.98-18.09,13.98-18.09C37.45,107.83,25.53,106.6,25.53,106.6z M52.15,23.88
		c1.65-2.47,2.06-5.34,1.44-5.95c-0.62-0.62-3.5-0.21-5.96,1.44c-2.61,1.73-13.15,10.89-16.34,14.07l12.3,0.99
		C46.95,30.53,51,25.59,52.15,23.88z M157.69,57.69l-5.76-5.76c0,0-34.73,38.85-65.97,67.21l49.13,49.13l9.66-9.66l-5.75-82.22
		L157.69,57.69z M123.06,161.79c0,0-7.1,7.3-7.82,10.48l-2.98-0.31l-1.84,1.84l2.77,2.78c0,0-0.93,1.13-0.62,1.85
		c0.71,0.31,1.85-0.62,1.85-0.62l2.78,2.78l1.85-1.85l-0.31-2.98c3.18-0.72,10.59-7.71,10.59-7.71L123.06,161.79z M157.8,129.52
		c-1.72,1.15-6.66,5.21-10.56,8.56l1,12.3c3.18-3.19,12.34-13.73,14.08-16.34c1.64-2.46,2.06-5.34,1.43-5.95
		C163.14,127.47,160.26,127.87,157.8,129.52z M54.72,144.84l11.31,20.35l9.04-9.05c0,0-1.23-11.93-2.26-25.29
		C72.81,130.85,61.91,140.94,54.72,144.84z M83.08,116.26c0,0-26.31,25.48-34.33,26.52l-4.93-4.94l-4.93-4.93
		c1.03-8.01,26.51-34.33,26.51-34.33c30.58-33.85,66.79-65.97,66.79-65.97c16.25-16.24,33.1-20.76,35.36-18.49
		c2.26,2.25-2.26,19.11-18.5,35.35C149.06,49.46,116.93,85.68,83.08,116.26z M124.85,56.82c5.33,5.33,24.96-15.99,24.96-15.99
		c-0.45-2.11-1.62-3.91-3.44-5.53l-0.01-0.01c-1.61-1.82-3.42-2.99-5.53-3.44C140.83,31.85,119.52,51.49,124.85,56.82z
		 M75.68,105.58c-1.64,0.83-6.99,5.34-9.24,7.6l-21.58,21.58l2.05,2.06l21.59-21.59C73.84,109.89,75.68,105.58,75.68,105.58z"/>
	<g>
		<path class="st1" d="M64.29,83.59L15.16,34.48l9.66-9.66l82.22,5.75l18.7-18.7l5.76,5.76C131.5,17.63,92.65,52.35,64.29,83.59z"/>
		<path class="st2" d="M64.36,86.49L12.34,34.48l11.72-11.72l82.22,5.75l19.47-19.47l8.67,8.67l-1.58,1.41
			c-0.39,0.35-39.1,35.02-67.07,65.82L64.36,86.49z M17.99,34.48L64.22,80.7c24.73-27,56.95-56.42,64.38-63.14l-2.86-2.86
			l-17.93,17.93L25.6,26.87L17.99,34.48z"/>
	</g>
	<g>
		<path class="st1" d="M21.64,46.49l-6.27-6.27c0,0-7,7.39-7.71,10.58l-2.98-0.31l-1.85,1.85l2.78,2.77c0,0-0.93,1.13-0.62,1.86
			c0.72,0.29,1.85-0.63,1.85-0.63l2.77,2.77l1.85-1.85l-0.31-2.97C14.34,53.58,21.64,46.49,21.64,46.49z"/>
		<path class="st2" d="M9.62,61.96l-3.13-3.13c-0.67,0.23-1.46,0.33-2.25,0.01l-0.76-0.31l-0.32-0.76c-0.34-0.8-0.25-1.61-0.02-2.28
			L0,52.35l3.94-3.93l2.42,0.25c1.83-3.66,6.5-8.7,7.56-9.81l1.41-1.49l9.16,9.15l-1.46,1.41c-1.1,1.07-6.09,5.82-9.73,7.67
			l0.25,2.42L9.62,61.96z M8.31,54.99l1.02,1.02L9,52.96l-3.05-0.31L8.31,54.99L8.31,54.99z M15.44,43.12
			c-2.56,2.87-5.48,6.59-5.82,8.13L9.3,52.69l1.41-0.32c1.53-0.35,5.22-3.32,8.06-5.91L15.44,43.12z"/>
	</g>
	<g>
		<path class="st3" d="M27.29,94.48l-9.04,9.05l20.35,11.31c3.91-7.2,13.98-18.09,13.98-18.09C39.21,95.72,27.29,94.48,27.29,94.48z
			"/>
		<path class="st2" d="M39.39,117.57L14.96,104l11.59-11.6l0.95,0.1c0.12,0.01,12.05,1.24,25.23,2.26l4.12,0.32l-2.8,3.03
			c-0.1,0.11-9.95,10.8-13.69,17.69L39.39,117.57z M21.54,103.07l16.32,9.07c2.92-4.74,7.59-10.34,10.54-13.72
			c-9.46-0.77-17.65-1.58-20.36-1.85L21.54,103.07z"/>
	</g>
	<g>
		<path class="st1" d="M53.91,11.76c1.65-2.47,2.06-5.34,1.44-5.95c-0.62-0.62-3.5-0.21-5.96,1.44
			c-2.61,1.73-13.15,10.89-16.34,14.07l12.3,0.99C48.71,18.42,52.76,13.47,53.91,11.76z"/>
		<path class="st2" d="M46.2,24.39l-17.63-1.42l3.06-3.06c3.27-3.27,13.94-12.53,16.64-14.33c2.33-1.56,6.65-3.02,8.48-1.19
			c1.83,1.82,0.37,6.14-1.19,8.48l0,0c-1.25,1.86-5.42,6.92-8.71,10.74L46.2,24.39z M37.71,19.69l6.78,0.55
			c3.44-4.02,6.83-8.21,7.75-9.59c0.74-1.11,1.12-2.24,1.28-3.03c-0.79,0.16-1.93,0.54-3.03,1.29
			C48.58,10.18,42.07,15.74,37.71,19.69z"/>
	</g>
	<g>
		<path class="st1" d="M159.45,45.58l-5.76-5.76c0,0-34.73,38.85-65.97,67.21l49.13,49.13l9.66-9.66l-5.75-82.22L159.45,45.58z"/>
		<path class="st2" d="M136.85,158.28l-51.3-51.3l1.17-1.06c30.83-27.98,65.51-66.71,65.86-67.1l1.06-1.18l7.94,7.94L142.3,64.85
			l5.75,82.21L136.85,158.28z M89.89,107.08l46.96,46.95l8.11-8.12l-5.75-82.22l18.12-18.12L153.75,42
			C147.76,48.63,117.49,81.86,89.89,107.08z"/>
	</g>
	<g>
		<path class="st1" d="M124.82,149.67c0,0-7.1,7.3-7.82,10.48l-2.98-0.31l-1.84,1.84l2.77,2.78c0,0-0.93,1.13-0.62,1.85
			c0.71,0.31,1.85-0.62,1.85-0.62l2.78,2.78l1.85-1.85l-0.31-2.98c3.18-0.72,10.59-7.71,10.59-7.71L124.82,149.67z"/>
		<path class="st2" d="M118.97,171.31l-3.14-3.14c-0.68,0.24-1.48,0.33-2.28-0.01l-0.73-0.31l-0.32-0.73
			c-0.35-0.8-0.25-1.61-0.02-2.29l-3.12-3.14l3.92-3.93l2.43,0.25c1.85-3.64,6.61-8.63,7.68-9.73l1.41-1.45l9.15,9.16l-1.5,1.41
			c-1.11,1.05-6.16,5.72-9.81,7.55l0.25,2.42L118.97,171.31z M117.34,164.04l1.33,1.32l-0.32-3.05l-3.05-0.31L117.34,164.04z
			 M124.87,152.55c-2.59,2.84-5.57,6.52-5.91,8.05l-0.32,1.43l1.42-0.32c1.53-0.35,5.26-3.27,8.14-5.82L124.87,152.55z"/>
	</g>
	<g>
		<path class="st1" d="M159.56,117.4c-1.72,1.15-6.66,5.21-10.56,8.56l1,12.3c3.18-3.19,12.34-13.73,14.08-16.34
			c1.64-2.46,2.06-5.34,1.43-5.95C164.9,115.35,162.02,115.76,159.56,117.4z"/>
		<path class="st2" d="M148.35,142.74l-1.43-17.63l0.77-0.66c3.96-3.41,8.92-7.49,10.76-8.71c2.34-1.57,6.65-3.02,8.48-1.18
			c1.83,1.81,0.38,6.13-1.19,8.47c-1.81,2.71-11.07,13.38-14.33,16.65L148.35,142.74z M151.07,126.82l0.55,6.78
			c3.94-4.36,9.51-10.87,10.79-12.79c0.74-1.11,1.12-2.25,1.28-3.03c-0.79,0.16-1.92,0.54-3.03,1.28l-0.01,0
			C159.15,120.07,154.76,123.67,151.07,126.82z"/>
	</g>
	<g>
		<path class="st3" d="M56.48,132.72l11.31,20.35l9.04-9.05c0,0-1.23-11.93-2.26-25.29C74.57,118.74,63.67,128.82,56.48,132.72z"/>
		<path class="st2" d="M67.32,156.36l-13.57-24.44l1.78-0.96c6.89-3.73,17.58-13.59,17.69-13.69l3.04-2.81l0.32,4.12
			c1.01,13.18,2.24,25.12,2.25,25.24l0.1,0.95L67.32,156.36z M59.18,133.46l9.06,16.32l6.5-6.5c-0.27-2.71-1.08-10.9-1.85-20.36
			C69.51,125.87,63.91,130.54,59.18,133.46z"/>
	</g>
	<g>
		<g>
			<path class="st1" d="M84.84,104.15c0,0-26.31,25.48-34.33,26.52l-4.93-4.94l-4.93-4.93c1.03-8.01,26.51-34.33,26.51-34.33
				c30.58-33.85,66.79-65.97,66.79-65.97C150.21,4.25,167.06-0.26,169.32,2c2.26,2.25-2.26,19.11-18.5,35.35
				C150.82,37.35,118.69,73.56,84.84,104.15z"/>
			<path class="st2" d="M49.97,132.25l-10.9-10.91l0.09-0.73c1.07-8.27,24.28-32.45,26.92-35.18
				c30.25-33.48,66.51-65.73,66.88-66.05c16.39-16.38,34.09-21.76,37.41-18.43c0.66,0.66,0.98,1.69,0.98,3.15
				c0.01,5.73-5.28,20.12-19.49,34.32c-0.26,0.3-32.49,36.55-66.01,66.84c-2.82,2.73-26.9,25.85-35.16,26.91L49.97,132.25z
				 M42.28,120.3l8.72,8.73c6.85-1.9,25.82-19.21,32.79-25.96l0.04-0.04c33.4-30.18,65.54-66.32,65.86-66.68
				c15.86-15.86,19.49-31.22,18.55-33.28c-2.06-0.94-17.41,2.68-33.23,18.48c-0.43,0.38-36.57,32.52-66.74,65.92
				C61.49,94.48,44.18,113.46,42.28,120.3z"/>
		</g>
		<g>
			<path class="st3" d="M126.61,44.71c5.33,5.33,24.96-15.99,24.96-15.99c-0.45-2.11-1.62-3.91-3.44-5.53l-0.01-0.01
				c-1.61-1.82-3.42-2.99-5.53-3.44C142.59,19.74,121.28,39.38,126.61,44.71z"/>
			<path class="st2" d="M128.87,47.06c-1.33,0-2.47-0.45-3.32-1.29l0,0c-0.87-0.88-1.32-2.07-1.29-3.45
				c0.16-7.65,15.56-22.07,17.32-23.69l0.57-0.53l0.76,0.16c2.33,0.5,4.45,1.8,6.29,3.85c2.08,1.87,3.34,3.93,3.85,6.28l0.16,0.76
				l-0.53,0.57c-1.62,1.76-16.04,17.17-23.68,17.32C128.95,47.06,128.91,47.06,128.87,47.06z M127.67,43.65
				c0.19,0.19,0.51,0.43,1.26,0.41c5.18-0.11,16.39-10.89,20.98-15.76c-0.47-1.44-1.38-2.75-2.77-3.99l-0.08-0.07
				c-1.29-1.45-2.6-2.37-4.05-2.84c-4.87,4.59-15.64,15.8-15.75,20.98C127.24,43.13,127.49,43.46,127.67,43.65L127.67,43.65z"/>
		</g>
		<g>
			<path class="st1" d="M77.44,93.46c-1.64,0.83-6.99,5.34-9.24,7.6l-21.58,21.58l2.05,2.06l21.59-21.59
				C75.6,97.77,77.44,93.46,77.44,93.46z"/>
			<path class="st2" d="M48.67,126.83l-4.17-4.18l22.64-22.64c2.29-2.3,7.74-6.93,9.63-7.88l3.67-1.85l-1.62,3.78
				c-0.08,0.19-2.02,4.64-7.51,10.12L48.67,126.83z"/>
		</g>
	</g>
</g>
</svg>
